HIERARCHY
ROOT Hips
{
 OFFSET 0.000000 0.000000 0.000000
 CHANNELS 6 Xposition Yposition Zposition Yrotation Xrotation Zrotation
 JOINT Chest
 {
  OFFSET 0.000000 9.929072 0.003365
  CHANNELS 3 Yrotation Xrotation Zrotation
  JOINT Chest2
  {
   OFFSET 0.000000 10.971018 -0.006113
   CHANNELS 3 Yrotation Xrotation Zrotation
   JOINT Chest3
   {
    OFFSET 0.000000 9.912974 0.000000
    CHANNELS 3 Yrotation Xrotation Zrotation
    JOINT Chest4
    {
     OFFSET 0.000000 9.912974 0.000000
     CHANNELS 3 Yrotation Xrotation Zrotation
     JOINT Neck
     {
      OFFSET 0.000000 13.927846 0.000000
      CHANNELS 3 Yrotation Xrotation Zrotation
      JOINT Head
      {
       OFFSET 0.000000 9.224641 -0.014537
       CHANNELS 3 Yrotation Xrotation Zrotation
       End Site
       {
        OFFSET 0.000000 17.699375 -0.007593
       }
      }
     }
     JOINT RightCollar
     {
      OFFSET -2.989629 7.767491 0.000000
      CHANNELS 3 Yrotation Xrotation Zrotation
      JOINT RightShoulder
      {
       OFFSET -13.837047 0.000000 0.000000
       CHANNELS 3 Yrotation Xrotation Zrotation
       JOINT RightElbow
       {
        OFFSET 0.000000 -29.499480 0.000000
        CHANNELS 3 Yrotation Xrotation Zrotation
        JOINT RightWrist
        {
         OFFSET 0.000000 -24.159672 0.001937
         CHANNELS 3 Yrotation Xrotation Zrotation
         End Site
         {
          OFFSET 0.000000 -18.064068 0.000000
         }
        }
       }
      }
     }
     JOINT LeftCollar
     {
      OFFSET 2.989629 7.767491 0.000000
      CHANNELS 3 Yrotation Xrotation Zrotation
      JOINT LeftShoulder
      {
       OFFSET 13.837047 0.000000 0.000000
       CHANNELS 3 Yrotation Xrotation Zrotation
       JOINT LeftElbow
       {
        OFFSET 0.000000 -29.499480 0.000000
        CHANNELS 3 Yrotation Xrotation Zrotation
        JOINT LeftWrist
        {
         OFFSET 0.000000 -24.159672 0.001937
         CHANNELS 3 Yrotation Xrotation Zrotation
         End Site
         {
          OFFSET 0.000000 -18.064068 0.000000
         }
        }
       }
      }
     }
    }
   }
  }
 }
 JOINT RightHip
 {
  OFFSET -8.036712 -0.016490 -0.001683
  CHANNELS 3 Yrotation Xrotation Zrotation
  JOINT RightKnee
  {
   OFFSET 0.000000 -42.121952 0.001592
   CHANNELS 3 Yrotation Xrotation Zrotation
   JOINT RightAnkle
   {
    OFFSET 0.000000 -39.436059 -0.045183
    CHANNELS 3 Yrotation Xrotation Zrotation
    JOINT RightToe
    {
     OFFSET 0.000000 -5.848915 14.759459
     CHANNELS 3 Yrotation Xrotation Zrotation
     End Site
     {
      OFFSET 0.000000 -1.542647 7.054364
     }
    }
   }
  }
 }
 JOINT LeftHip
 {
  OFFSET 8.036712 -0.016490 -0.001683
  CHANNELS 3 Yrotation Xrotation Zrotation
  JOINT LeftKnee
  {
   OFFSET 0.000000 -42.121952 0.001592
   CHANNELS 3 Yrotation Xrotation Zrotation
   JOINT LeftAnkle
   {
    OFFSET 0.000000 -39.436059 -0.045183
    CHANNELS 3 Yrotation Xrotation Zrotation
    JOINT LeftToe
    {
     OFFSET 0.000000 -5.848915 14.759459
     CHANNELS 3 Yrotation Xrotation Zrotation
     End Site
     {
      OFFSET 0.000000 -1.542647 7.054364
     }
    }
   }
  }
 }
}
MOTION
Frames: 11
Frame Time: 0.008333
-49.088212 85.094066 82.994805 67.551745 -5.100157 -0.381305 2.259462 10.615677 2.110965 0.928400 4.693618 0.925425 0.928400 4.693618 0.925425 0.688790 3.521638 0.686538 -1.274418 8.289711 -2.932037 -1.054314 -20.779727 -5.150890 3.435734 5.170734 12.029173 -15.287362 -25.498735 -4.899061 4.873076 3.858141 -8.848898 28.205155 -5.980622 -18.425721 5.018737 4.721203 -8.813243 -6.370601 -12.982187 6.669011 -14.832255 -12.637595 -1.620564 -31.395867 2.622377 13.815228 4.585802 -11.381837 4.413495 -0.827526 0.105379 -1.102290 -2.444019 11.674868 6.552885 0.260420 -3.892968 0.638335 6.849046 17.670041 -5.537746 -0.887978 16.940652 1.276986 3.852739 -18.279836 3.660627 -0.014741 -10.375890 0.839727
-48.278318 85.156607 83.292235 67.591248 -5.181246 -0.609577 2.296265 10.544018 2.228641 0.936554 4.660724 0.972175 0.936554 4.660724 0.972175 0.694601 3.497052 0.721575 -1.266867 8.383322 -2.926246 -1.045694 -20.605838 -5.140624 3.451253 5.198816 12.032659 -15.450207 -25.413675 -4.875336 4.574904 3.923053 -8.851721 27.980421 -6.003526 -18.406969 5.020925 4.724578 -8.801114 -6.211097 -12.888204 6.663810 -14.952880 -12.643519 -1.609633 -31.390377 2.612133 13.834705 4.432186 -10.808542 4.568112 -0.511531 -0.004211 -0.898097 -2.697002 12.348667 6.392198 0.283380 -3.945701 0.539763 6.958574 17.620739 -5.197438 -0.686088 18.079574 1.361538 3.758227 -17.581100 3.032423 -0.050503 -12.325585 1.108446
-47.453846 85.224126 83.607203 67.545944 -5.259766 -0.825087 2.357871 10.458623 2.329555 0.961385 4.621232 1.015370 0.961385 4.621232 1.015370 0.712957 3.467541 0.753832 -1.263171 8.495591 -2.915359 -1.047844 -20.397550 -5.117917 3.440183 5.232454 12.010550 -15.607117 -25.288858 -4.809751 4.369919 3.972415 -8.888597 27.683072 -6.021957 -18.368154 5.021152 4.726852 -8.779766 -6.039159 -12.758268 6.658171 -15.020641 -12.656079 -1.611936 -31.416042 2.627126 13.878116 4.418051 -10.343160 4.805675 -0.324949 0.089595 -0.868056 -2.821020 12.855913 6.454014 0.324414 -3.946105 0.360359 7.206792 17.521522 -4.815692 -0.430251 19.310276 1.449642 3.563426 -16.755812 2.397126 -0.109142 -14.403437 1.424278
-46.613154 85.293149 83.950847 67.509105 -5.317090 -1.052522 2.421700 10.366698 2.444560 0.982844 4.578021 1.055652 0.982844 4.578021 1.055652 0.728820 3.435235 0.783943 -1.253485 8.618156 -2.905973 -1.037793 -20.169922 -5.100883 3.419268 5.244332 11.976005 -15.683395 -25.129357 -4.756918 4.223120 4.008109 -8.974484 27.302978 -6.035544 -18.297077 5.031108 4.700668 -8.757414 -5.857778 -12.604516 6.650007 -15.106034 -12.672102 -1.615902 -31.432246 2.661265 13.941370 4.468246 -9.963571 5.157334 -0.230339 0.304348 -0.980673 -2.875188 13.141744 6.463559 0.339984 -3.823837 0.295462 7.352137 17.332398 -4.414825 -0.089570 20.639296 1.509194 3.361949 -15.812620 1.756067 -0.185103 -16.604228 1.775952
-45.753743 85.359887 84.297951 67.420073 -5.366296 -1.259596 2.502984 10.266158 2.538308 1.015440 4.535118 1.091968 1.015440 4.535118 1.091968 0.753066 3.403176 0.811002 -1.250819 8.755858 -2.890154 -1.045185 -19.914555 -5.067401 3.408486 5.228891 11.947133 -15.765887 -24.951865 -4.705362 4.216834 4.041753 -9.121733 26.858692 -6.052538 -18.192479 5.023983 4.656255 -8.725152 -5.651538 -12.445430 6.627751 -15.147782 -12.691443 -1.622159 -31.473863 2.705574 14.008988 4.623645 -9.604148 5.534504 -0.221128 0.523181 -1.148409 -2.884979 13.268541 6.427489 0.327791 -3.601520 0.289676 7.668429 17.078388 -3.969069 0.262347 22.076888 1.577941 3.024853 -14.727960 1.153247 -0.291996 -18.966244 2.146259
-44.864354 85.420319 84.653165 67.363713 -5.395006 -1.443725 2.569599 10.154889 2.619301 1.041946 4.486256 1.121620 1.041946 4.486256 1.121620 0.772814 3.366628 0.833125 -1.245512 8.913741 -2.873941 -1.048195 -19.621644 -5.034008 3.398011 5.205293 11.926532 -15.781792 -24.758145 -4.683885 4.296421 4.087296 -9.299346 26.389181 -6.078626 -18.106410 5.020748 4.622562 -8.693474 -5.473119 -12.289399 6.618898 -15.183383 -12.713193 -1.636143 -31.484353 2.768358 14.092100 4.767094 -9.242123 5.843578 -0.281031 0.711412 -1.233948 -2.795795 13.266193 6.370488 0.307094 -3.321762 0.276672 7.897204 16.723606 -3.549258 0.675061 23.643690 1.649053 2.657123 -13.489670 0.555204 -0.420718 -21.509290 2.546714
-43.944840 85.471623 85.002176 67.305469 -5.446412 -1.624448 2.630081 10.049669 2.695379 1.067230 4.442004 1.148140 1.067230 4.442004 1.148140 0.791665 3.333532 0.852905 -1.246784 9.084060 -2.851175 -1.067574 -19.305983 -4.984396 3.383361 5.175120 11.909449 -15.777241 -24.563366 -4.666228 4.474125 4.142056 -9.478048 25.959079 -6.107095 -18.067984 5.016716 4.591406 -8.651575 -5.319999 -12.148703 6.616039 -15.148976 -12.734579 -1.672221 -31.539422 2.834077 14.177684 4.920341 -8.852953 6.089236 -0.368401 0.906979 -1.209048 -2.633134 13.149809 6.270387 0.273260 -3.021065 0.271788 8.262144 16.306474 -3.080495 1.059150 25.349232 1.751871 2.199282 -12.074287 -0.035945 -0.589825 -24.262771 2.984547
-42.992983 85.511393 85.358429 67.314182 -5.471223 -1.786688 2.663735 9.930636 2.763979 1.081392 4.388543 1.167106 1.081392 4.388543 1.167106 0.802255 3.293497 0.867125 -1.246502 9.272583 -2.827668 -1.084685 -18.956483 -4.933839 3.342357 5.172113 11.902214 -15.713828 -24.376852 -4.672597 4.675405 4.179132 -9.637044 25.633340 -6.112732 -18.080612 5.003903 4.582395 -8.592450 -5.207263 -12.014501 6.619718 -15.104708 -12.773929 -1.697899 -31.573940 2.895703 14.235902 5.019887 -8.413455 6.247650 -0.405685 1.044589 -1.100188 -2.482232 12.917266 6.177433 0.232059 -2.697770 0.249507 8.449239 15.760288 -2.656094 1.574471 27.201306 1.887464 1.720897 -10.428545 -0.686410 -0.796494 -27.279683 3.492373
-42.111783 85.745034 85.779675 67.236636 -5.417554 -2.466356 2.862957 9.684234 3.357233 1.095204 4.341239 1.181825 1.095204 4.341239 1.181825 0.812604 3.258072 0.878155 -1.252191 9.465023 -2.800099 -1.115300 -18.599954 -4.872643 3.308703 5.166727 11.901920 -15.627220 -24.207001 -4.694746 4.941455 4.207139 -9.784126 25.402598 -6.096268 -18.124354 4.973765 4.562751 -8.528607 -5.124748 -11.929351 6.620910 -15.001164 -12.778650 -1.725562 -31.630796 2.946808 14.289027 5.102404 -7.912230 6.907393 -0.338301 1.160327 -0.969599 -2.362997 11.681933 6.211742 0.109067 -1.619502 0.136778 9.076435 14.892459 -1.558789 2.085056 29.208741 2.122831 1.051898 -8.473263 -1.433069 -1.103981 -30.586849 4.084161
-41.222713 85.954459 86.168917 67.159928 -5.531813 -2.960771 3.097652 9.651751 3.792276 1.096384 4.292969 1.192212 1.096384 4.292969 1.192212 0.813518 3.221891 0.886029 -1.262297 9.653646 -2.773592 -1.153622 -18.250596 -4.811817 3.244814 5.158566 11.897115 -15.493078 -24.045632 -4.722119 5.240513 4.188743 -9.935987 25.285793 -6.077828 -18.170372 4.934586 4.531300 -8.468268 -5.144160 -11.829330 6.655544 -14.853816 -12.840318 -1.738849 -31.670628 2.993335 14.314283 5.128565 -7.143460 7.366820 -0.148787 1.149821 -0.787733 -2.288953 10.755923 6.306819 0.021678 -0.876988 -0.024767 9.601060 14.125765 -0.706213 2.751816 31.326468 2.435776 0.447091 -6.318212 -2.043961 -1.625974 -34.113910 4.664655
-40.363662 86.138951 86.537505 67.145325 -5.610981 -3.382192 3.255490 9.580121 4.145930 1.098392 4.241730 1.197984 1.098392 4.241730 1.197984 0.815093 3.183476 0.890445 -1.283883 9.851678 -2.743642 -1.215888 -17.884133 -4.739029 3.168695 5.190729 11.890854 -15.326144 -23.946637 -4.748119 5.605135 4.173855 -10.081920 25.225271 -6.062546 -18.211199 4.875361 4.513911 -8.392576 -5.209147 -11.760324 6.700523 -14.634277 -12.914285 -1.769698 -31.734787 2.996148 14.348294 4.971184 -6.352292 7.732312 0.136304 1.043769 -0.582471 -2.207892 9.968430 6.471760 -0.053146 -0.282803 -0.223912 10.229457 13.159668 0.100247 3.557018 33.698242 2.964747 -0.521112 -3.958769 -2.505537 -2.173210 -37.930053 5.249412
